<svg version="1.1" id="Layer_1" xmlns="http://www.w3.org/2000/svg" xmlns:xlink="http://www.w3.org/1999/xlink" x="0px" y="0px"
	 width="100%" viewBox="0 0 51 51" enable-background="new 0 0 51 51" xml:space="preserve">
<path fill="#6467F1" opacity="1.000000" stroke="none" 
	d="
M37.011639,52.000000 
	C24.676176,52.000000 12.843122,52.000000 1.007550,52.000000 
	C1.005034,35.003757 1.005034,18.007513 1.002516,1.008451 
	C17.995842,1.005634 34.991684,1.005634 51.990646,1.002816 
	C51.993767,17.995441 51.993767,34.990887 51.993767,52.000000 
	C47.171352,52.000000 42.342701,52.000000 37.011639,52.000000 
M8.875749,33.949390 
	C10.074894,35.798775 10.883760,38.198471 12.554278,39.383202 
	C16.052057,41.863823 19.950001,43.808811 23.782488,45.781681 
	C28.654068,48.289459 44.915905,40.256519 46.032608,34.877304 
	C46.166431,34.232681 46.190624,33.553078 46.176090,32.891655 
	C45.707623,11.568600 49.679493,18.171511 31.190493,7.153292 
	C30.623587,6.815452 30.006636,6.442877 29.376070,6.356643 
	C28.253422,6.203112 26.863920,5.821641 26.002306,6.294317 
	C20.642418,9.234714 14.529454,11.550952 10.453390,15.791868 
	C8.144459,18.194180 9.191751,23.864895 8.827334,28.072197 
	C8.684529,29.720942 8.814925,31.393347 8.875749,33.949390 
z"/>
<path fill="#F6F6FE" opacity="1.000000" stroke="none" 
	d="
M8.848322,33.502182 
	C8.814925,31.393347 8.684529,29.720942 8.827334,28.072197 
	C9.191751,23.864895 8.144459,18.194180 10.453390,15.791868 
	C14.529454,11.550952 20.642418,9.234714 26.002306,6.294317 
	C26.863920,5.821641 28.253422,6.203112 29.376070,6.356643 
	C30.006636,6.442877 30.623587,6.815452 31.190493,7.153292 
	C49.679493,18.171511 45.707623,11.568600 46.176090,32.891655 
	C46.190624,33.553078 46.166431,34.232681 46.032608,34.877304 
	C44.915905,40.256519 28.654068,48.289459 23.782488,45.781681 
	C19.950001,43.808811 16.052057,41.863823 12.554278,39.383202 
	C10.883760,38.198471 10.074894,35.798775 8.848322,33.502182 
M30.291212,27.152630 
	C29.839916,31.929451 29.388620,36.706268 28.898256,41.896610 
	C41.758553,37.847237 44.716000,32.670479 41.708839,20.540764 
	C38.069927,22.648300 34.521156,24.703629 30.291212,27.152630 
M22.049307,40.474594 
	C23.028511,40.919415 24.007715,41.364235 25.075096,41.849113 
	C27.426189,29.033695 25.093931,25.074060 13.210232,21.151981 
	C10.492163,32.062786 11.693523,34.952522 20.980198,39.842651 
	C21.127172,39.920048 21.272224,40.001095 22.049307,40.474594 
M32.934654,12.406598 
	C27.025723,9.208469 21.004021,10.882463 15.808353,17.167595 
	C27.470917,25.495262 30.947107,25.380541 39.576786,16.298220 
	C37.546989,15.134396 35.541271,13.984378 32.934654,12.406598 
z"/>
<path fill="#7072F2" opacity="1.000000" stroke="none" 
	d="
M30.631798,26.955793 
	C34.521156,24.703629 38.069927,22.648300 41.708839,20.540764 
	C44.716000,32.670479 41.758553,37.847237 28.898256,41.896610 
	C29.388620,36.706268 29.839916,31.929451 30.631798,26.955793 
z"/>
<path fill="#7072F2" opacity="1.000000" stroke="none" 
	d="
M21.733740,40.277515 
	C21.272224,40.001095 21.127172,39.920048 20.980198,39.842651 
	C11.693523,34.952522 10.492163,32.062786 13.210232,21.151981 
	C25.093931,25.074060 27.426189,29.033695 25.075096,41.849113 
	C24.007715,41.364235 23.028511,40.919415 21.733740,40.277515 
z"/>
<path fill="#6669F1" opacity="1.000000" stroke="none" 
	d="
M33.235104,12.620480 
	C35.541271,13.984378 37.546989,15.134396 39.576786,16.298220 
	C30.947107,25.380541 27.470917,25.495262 15.808353,17.167595 
	C21.004021,10.882463 27.025723,9.208469 33.235104,12.620480 
z"/>
</svg>